<svg width="61" height="61" viewBox="0 0 61 61" fill="none" xmlns="http://www.w3.org/2000/svg">
<path d="M54.0103 41.5814C51.7737 41.5814 50.7824 40.7172 49.3845 39.4972C47.8341 38.1755 45.9024 36.498 42.2678 36.498C38.6078 36.498 36.7015 38.1755 35.1511 39.4972C33.7532 40.7172 32.7366 41.5814 30.4999 41.5814C28.2887 41.5814 27.272 40.7172 25.8741 39.4972C24.3236 38.1755 22.392 36.498 18.7574 36.498C15.0974 36.498 13.1658 38.1755 11.6154 39.4972C10.2174 40.7172 9.22617 41.5814 6.9895 41.5814C5.94742 41.5814 5.08325 42.4455 5.08325 43.4876C5.08325 44.5551 5.94742 45.3939 6.9895 45.3939C10.6495 45.3939 12.5557 43.7418 14.1061 42.3947C15.5041 41.1747 16.5208 40.3105 18.7574 40.3105C20.9941 40.3105 21.9854 41.1747 23.3833 42.3947C24.9337 43.7418 26.8653 45.3939 30.4999 45.3939C34.1599 45.3939 36.0916 43.7418 37.642 42.3947C39.0399 41.1747 40.0312 40.3105 42.2678 40.3105C44.4791 40.3105 45.4958 41.1747 46.8937 42.3947C48.4441 43.7418 50.3757 45.3939 54.0103 45.3939C55.0524 45.3939 55.9166 44.5551 55.9166 43.4876C55.9166 42.4455 55.0524 41.5814 54.0103 41.5814Z" fill="#141416"/>
<path d="M54.0103 31.1107C51.7737 31.1107 50.7824 30.2211 49.3845 29.0265C47.8341 27.6794 45.9024 26.0273 42.2678 26.0273C38.6078 26.0273 36.7015 27.6794 35.1511 29.0265C33.7532 30.2211 32.7366 31.1107 30.4999 31.1107C28.2887 31.1107 27.272 30.2211 25.8741 29.0265C24.3236 27.6794 22.392 26.0273 18.7574 26.0273C15.0974 26.0273 13.1658 27.6794 11.6154 29.0265C10.2174 30.2211 9.22617 31.1107 6.9895 31.1107C5.94742 31.1107 5.08325 31.9494 5.08325 33.0169C5.08325 34.059 5.94742 34.9232 6.9895 34.9232C10.6495 34.9232 12.5557 33.2457 14.1061 31.8986C15.5041 30.704 16.5208 29.8398 18.7574 29.8398C20.9941 29.8398 21.9854 30.704 23.3833 31.8986C24.9337 33.2457 26.8653 34.9232 30.4999 34.9232C34.1599 34.9232 36.0916 33.2457 37.642 31.8986C39.0399 30.704 40.0312 29.8398 42.2678 29.8398C44.4791 29.8398 45.4958 30.704 46.8937 31.8986C48.4441 33.2457 50.3757 34.9232 54.0103 34.9232C55.0524 34.9232 55.9166 34.059 55.9166 33.0169C55.9166 31.9494 55.0524 31.1107 54.0103 31.1107Z" fill="#141416"/>
<path d="M6.9895 24.5023C10.6495 24.5023 12.5557 22.8248 14.1061 21.5031C15.5041 20.2831 16.5208 19.4189 18.7574 19.4189C20.9941 19.4189 21.9854 20.2831 23.3833 21.5031C24.9337 22.8248 26.8653 24.5023 30.4999 24.5023C34.1599 24.5023 36.0916 22.8248 37.642 21.5031C39.0399 20.2831 40.0312 19.4189 42.2678 19.4189C44.4791 19.4189 45.4958 20.2831 46.8937 21.5031C48.4441 22.8248 50.3758 24.5023 54.0103 24.5023C55.0524 24.5023 55.9166 23.6381 55.9166 22.596C55.9166 21.5285 55.0524 20.6898 54.0103 20.6898C51.7737 20.6898 50.7824 19.8256 49.3845 18.6056C47.8341 17.2585 45.9024 15.6064 42.2678 15.6064C38.6078 15.6064 36.7015 17.2585 35.1511 18.6056C33.7532 19.8256 32.7366 20.6898 30.4999 20.6898C28.2887 20.6898 27.272 19.8256 25.8741 18.6056C24.3236 17.2585 22.392 15.6064 18.7574 15.6064C15.0974 15.6064 13.1658 17.2585 11.6154 18.6056C10.2174 19.8256 9.22617 20.6898 6.9895 20.6898C5.94742 20.6898 5.08325 21.5285 5.08325 22.596C5.08325 23.6381 5.94742 24.5023 6.9895 24.5023Z" fill="#141416"/>
</svg>
