<svg width="307" height="320" viewBox="0 0 307 320" fill="none" xmlns="http://www.w3.org/2000/svg">
<path opacity="0.2" d="M63.9441 160.471C63.0122 137.835 60.9238 123.065 76.5977 107.513C93.3327 90.9077 92.7946 72.5172 119.272 71.9466C170.548 70.8416 240.091 115.595 242.018 162.4C243.056 187.609 210.746 205.516 191.854 221.46C175.671 235.119 174.907 248.668 150.766 249.188C98.4416 250.316 65.8709 207.275 63.9441 160.471Z" fill="url(#paint0_radial_1_128)"/>
<path d="M159.916 251.161C133.22 250.288 109.319 238.77 91.9538 220.989C73.4133 202.004 62.3233 175.879 63.2365 147.947C65.0049 93.8535 111.252 49.463 166.451 51.2676C196.181 52.2396 215.322 87.7346 232.956 108.937C248.062 127.1 263.962 129.014 263.13 154.482C261.325 209.681 215.115 252.965 159.916 251.161Z" fill="white"/>
<path opacity="0.2" d="M164.916 252.161C138.22 251.288 114.319 239.77 96.9538 221.989C78.4133 203.004 67.3233 176.879 68.2365 148.947C70.0049 94.8535 116.252 50.463 171.451 52.2676C201.181 53.2396 220.322 88.7346 237.956 109.937C253.062 128.1 268.962 130.014 268.13 155.482C266.325 210.681 220.115 253.965 164.916 252.161Z" fill="url(#paint1_radial_1_128)"/>
<path opacity="0.2" d="M146.754 245.804C120.056 244.985 96.1326 233.515 78.7319 215.768C60.1533 196.821 49.0108 170.718 49.8679 142.784C51.5277 88.6875 97.6852 44.2042 152.888 45.898C182.62 46.8103 201.832 82.2668 219.509 103.434C234.651 121.566 250.555 123.448 249.774 148.918C248.08 204.12 201.956 247.498 146.754 245.804Z" fill="url(#paint2_radial_1_128)"/>
<path opacity="0.2" d="M169.994 229.192C147.355 230.053 132.607 232.094 116.785 216.381C99.8916 199.603 81.4951 200.084 80.4888 173.619C78.5399 122.369 122.186 53.0031 168.996 51.223C194.209 50.2643 212.661 82.6121 228.929 101.543C242.865 117.76 256.437 118.565 257.355 142.695C259.343 194.993 216.804 227.412 169.994 229.192Z" fill="url(#paint3_radial_1_128)"/>
<path opacity="0.2" d="M253.969 160C253.969 186.71 242.428 180.882 225.224 198.819C206.855 217.97 181.916 260 153.969 260C99.8469 260 53.9689 215.228 53.9689 160C53.9689 130.253 88.8196 109.963 109.435 91.6456C127.094 75.9541 128.487 60 153.969 60C209.197 60 253.969 104.772 253.969 160Z" fill="url(#paint4_radial_1_128)"/>
<path opacity="0.2" d="M207.193 244.294C189.737 264.511 174.403 254.434 153.427 253.507C131.031 252.517 103.084 259.242 88.0515 235.682C58.9402 190.056 63.5227 117.493 99.6161 75.6902C119.056 53.1749 151.062 67.1972 174.122 70.7112C193.875 73.7214 205.051 62.8203 218.757 84.302C248.464 130.861 243.286 202.492 207.193 244.294Z" fill="url(#paint5_radial_1_128)"/>
<path opacity="0.2" d="M240.849 110.274C248.772 135.782 246.622 164.225 236.956 189.804C226.635 217.114 207.747 241.161 183.403 254.886C136.257 281.467 83.0134 261.242 66.6313 208.499C57.8077 180.092 82.1473 143.599 94.6712 115.981C105.4 92.3225 101.881 76.4022 124.078 63.8874C172.187 36.7633 224.467 57.5314 240.849 110.274Z" fill="url(#paint6_radial_1_128)"/>
<path opacity="0.2" d="M87.3541 94.4335C98.9424 75.0509 106.362 85.8185 124.358 83.8872C143.572 81.8252 173.516 68.2907 190.108 86.2969C222.239 121.168 230.052 183.216 206.091 223.293C193.185 244.879 163.692 237.149 143.506 237.159C126.214 237.168 118.465 247.847 103.337 231.43C70.5489 195.846 63.3931 134.511 87.3541 94.4335Z" fill="url(#paint7_radial_1_128)"/>
<path opacity="0.2" d="M178.584 230.865C156.382 232.002 141.905 234.229 126.534 218.649C110.123 202.015 92.0837 202.719 91.3344 176.171C89.8832 124.756 133.294 54.6106 179.202 52.2586C203.928 50.9918 221.728 83.2348 237.506 102.038C251.023 118.146 264.322 118.79 265.005 142.997C266.486 195.462 224.491 228.513 178.584 230.865Z" fill="url(#paint8_radial_1_128)"/>
<path opacity="0.2" d="M177.905 243.335C151.907 249.461 154.933 236.891 133.528 224.26C110.675 210.773 64.0447 196.139 57.6348 168.937C45.2213 116.258 78.2767 61.3339 132.033 48.6666C160.986 41.8439 188.729 71.1117 211.287 86.9757C230.61 100.565 246.459 98.2621 252.303 123.065C264.97 176.821 231.661 230.668 177.905 243.335Z" fill="url(#paint9_radial_1_128)"/>
<path opacity="0.2" d="M253.969 136.5C253.969 156.933 242.428 152.475 225.224 166.196C206.855 180.847 181.916 213 153.969 213C99.8469 213 53.9689 178.75 53.9689 136.5C53.9689 113.744 88.8196 98.222 109.435 84.2089C127.094 72.2049 128.487 60 153.969 60C209.197 60 253.969 94.2502 253.969 136.5Z" fill="url(#paint10_radial_1_128)"/>
<path opacity="0.2" d="M219.68 73.4584C238.358 86.1349 248.954 104.103 251.28 122.961C253.763 143.095 246.819 164.243 230.221 181.048C198.078 213.592 139.522 219.93 100.9 193.719C80.0981 179.601 86.6067 149.016 86.0399 127.927C85.5544 109.861 75.225 101.452 90.3586 86.1295C123.159 52.9204 181.058 47.2474 219.68 73.4584Z" fill="url(#paint11_radial_1_128)"/>
<path opacity="0.2" d="M168.313 256.819C140.429 261.6 144.448 248.509 122.643 233.76C99.3627 218.012 51.0213 199.501 46.0186 170.326C36.3304 113.826 74.8566 57.9178 132.512 48.0315C163.565 42.7067 190.985 75.4565 213.798 93.6982C233.34 109.324 250.245 107.923 254.806 134.525C264.692 192.18 225.968 246.933 168.313 256.819Z" fill="url(#paint12_radial_1_128)"/>
<path opacity="0.2" d="M183.064 79.3297C200.134 95.9781 209.997 118.77 212.411 142.243C214.989 167.305 209.076 193.144 194.377 213.114C165.913 251.786 113.171 256.662 77.8762 222.238C58.8659 203.697 64.2285 166.148 63.3643 140C62.6239 117.602 53.1609 106.662 66.5628 88.4541C95.6096 48.9911 147.769 44.906 183.064 79.3297Z" fill="url(#paint13_radial_1_128)"/>
<path opacity="0.2" d="M224.256 88.8598C246.357 103.859 234.531 112.657 237.283 134.969C240.221 158.793 256.367 196.279 236.729 216.162C198.697 254.669 129.412 262.168 83.7133 231.155C59.0996 214.451 66.8008 178.261 66.1302 153.308C65.5557 131.932 53.3337 121.982 71.2401 103.852C110.05 64.5588 178.557 57.8464 224.256 88.8598Z" fill="url(#paint14_radial_1_128)"/>
<path opacity="0.2" d="M224.329 237.215C204.146 254.71 200.946 242.211 176.057 241.018C149.483 239.744 101.291 248.513 82.8777 227.49C47.2177 186.777 50.8204 122.94 92.5527 86.7655C115.03 67.2815 153.324 80.2079 180.748 83.7173C204.241 86.7235 217.214 77.3218 234.004 96.4904C270.393 138.036 266.061 201.041 224.329 237.215Z" fill="url(#paint15_radial_1_128)"/>
<path opacity="0.2" d="M219.512 235.853C199.257 253.264 180.938 243.973 156.121 242.619C129.624 241.173 96.7101 246.401 78.4921 225.208C43.2111 184.166 47.2556 120.19 89.1366 84.1879C111.694 64.7966 149.799 77.9981 177.128 81.6899C200.539 84.8524 213.546 75.5089 230.157 94.8323C266.159 136.713 261.393 199.85 219.512 235.853Z" fill="url(#paint16_radial_1_128)"/>
<path opacity="0.2" d="M84.6996 84.8763C101.455 64.0751 111.056 74.7227 135.706 71.5465C162.025 68.1553 203.543 52.1984 225.307 69.7297C267.456 103.681 275.099 167.327 240.454 210.338C221.794 233.503 181.925 227.443 154.38 228.776C130.784 229.919 119.691 241.469 99.8462 225.484C56.8358 190.839 50.0544 127.887 84.6996 84.8763Z" fill="url(#paint17_radial_1_128)"/>
<path opacity="0.2" d="M235.443 217.707C254.547 199.04 244.589 182.686 243.318 160.293C241.961 136.385 247.916 106.538 225.011 90.5252C180.653 59.5154 111.029 64.5179 71.526 103.115C50.2492 123.903 64.2996 158.051 68.0932 182.664C71.3428 203.748 61.0734 215.696 81.9579 230.296C127.222 261.94 195.94 256.303 235.443 217.707Z" fill="url(#paint18_radial_1_128)"/>
<defs>
<radialGradient id="paint0_radial_1_128" cx="0" cy="0" r="1" gradientUnits="userSpaceOnUse" gradientTransform="translate(152.912 160.182) rotate(-92.3573) scale(88.9566 88.9395)">
<stop stop-color="#D1BBFD" stop-opacity="0"/>
<stop offset="0.411458" stop-color="#D1BBFD" stop-opacity="0.109375"/>
<stop offset="1" stop-color="#D1BBFD"/>
</radialGradient>
<radialGradient id="paint1_radial_1_128" cx="0" cy="0" r="1" gradientUnits="userSpaceOnUse" gradientTransform="translate(168.183 152.214) rotate(-178.128) scale(100)">
<stop stop-color="#E1F1FE" stop-opacity="0"/>
<stop offset="0.421875" stop-color="#E1F1FE" stop-opacity="0.0989583"/>
<stop offset="1" stop-color="#E1F1FE"/>
</radialGradient>
<radialGradient id="paint2_radial_1_128" cx="0" cy="0" r="1" gradientUnits="userSpaceOnUse" gradientTransform="translate(149.821 145.851) rotate(-178.243) scale(100)">
<stop stop-color="#F3DAFA" stop-opacity="0"/>
<stop offset="0.307292" stop-color="#F3DAFA" stop-opacity="0.0885417"/>
<stop offset="0.848958" stop-color="#F3DAFA"/>
</radialGradient>
<radialGradient id="paint3_radial_1_128" cx="0" cy="0" r="1" gradientUnits="userSpaceOnUse" gradientTransform="translate(168.242 140.273) rotate(177.822) scale(88.9566)">
<stop stop-color="#D1BBFD" stop-opacity="0"/>
<stop offset="0.411458" stop-color="#D1BBFD" stop-opacity="0.109375"/>
<stop offset="1" stop-color="#D1BBFD"/>
</radialGradient>
<radialGradient id="paint4_radial_1_128" cx="0" cy="0" r="1" gradientUnits="userSpaceOnUse" gradientTransform="translate(153.969 160) rotate(90) scale(100)">
<stop stop-color="#D8F7F9" stop-opacity="0"/>
<stop offset="0.453125" stop-color="#D8F7F9" stop-opacity="0.0885417"/>
<stop offset="1" stop-color="#D8F7F9"/>
</radialGradient>
<radialGradient id="paint5_radial_1_128" cx="0" cy="0" r="1" gradientUnits="userSpaceOnUse" gradientTransform="translate(153.404 159.992) rotate(130.808) scale(100 95.8062)">
<stop stop-color="#C2C5FD" stop-opacity="0"/>
<stop offset="0.510417" stop-color="#C5C8FD" stop-opacity="0.0989583"/>
<stop offset="1" stop-color="#E2E4FA"/>
</radialGradient>
<radialGradient id="paint6_radial_1_128" cx="0" cy="0" r="1" gradientUnits="userSpaceOnUse" gradientTransform="translate(153.74 159.387) rotate(72.7451) scale(100 97.7564)">
<stop stop-color="#F3DAFA" stop-opacity="0"/>
<stop offset="0.307292" stop-color="#F3DAFA" stop-opacity="0.0885417"/>
<stop offset="0.848958" stop-color="#F3DAFA"/>
</radialGradient>
<radialGradient id="paint7_radial_1_128" cx="0" cy="0" r="1" gradientUnits="userSpaceOnUse" gradientTransform="translate(146.722 158.863) rotate(-59.1261) scale(84.5468 84.0178)">
<stop stop-color="#F3F3FD" stop-opacity="0"/>
<stop offset="0.546875" stop-color="#F3F3FD" stop-opacity="0.0989583"/>
<stop offset="1" stop-color="#F3F3FD"/>
</radialGradient>
<radialGradient id="paint8_radial_1_128" cx="0" cy="0" r="1" gradientUnits="userSpaceOnUse" gradientTransform="translate(177.663 141.642) rotate(177.067) scale(87.2917 89.1877)">
<stop stop-color="#D1BBFD" stop-opacity="0"/>
<stop offset="0.411458" stop-color="#D1BBFD" stop-opacity="0.109375"/>
<stop offset="1" stop-color="#D1BBFD"/>
</radialGradient>
<radialGradient id="paint9_radial_1_128" cx="0" cy="0" r="1" gradientUnits="userSpaceOnUse" gradientTransform="translate(154.969 146.001) rotate(166.741) scale(100)">
<stop stop-color="#D8F7F9" stop-opacity="0"/>
<stop offset="0.453125" stop-color="#D8F7F9" stop-opacity="0.0885417"/>
<stop offset="1" stop-color="#D8F7F9"/>
</radialGradient>
<radialGradient id="paint10_radial_1_128" cx="0" cy="0" r="1" gradientUnits="userSpaceOnUse" gradientTransform="translate(153.969 136.5) rotate(90) scale(76.5 100)">
<stop stop-color="#D8F7F9" stop-opacity="0"/>
<stop offset="0.453125" stop-color="#D8F7F9" stop-opacity="0.0885417"/>
<stop offset="1" stop-color="#D8F7F9"/>
</radialGradient>
<radialGradient id="paint11_radial_1_128" cx="0" cy="0" r="1" gradientUnits="userSpaceOnUse" gradientTransform="translate(160.29 133.589) rotate(34.163) scale(84.515 83.1046)">
<stop stop-color="#E1F1FE" stop-opacity="0"/>
<stop offset="0.421875" stop-color="#E1F1FE" stop-opacity="0.0989583"/>
<stop offset="1" stop-color="#E1F1FE"/>
</radialGradient>
<radialGradient id="paint12_radial_1_128" cx="0" cy="0" r="1" gradientUnits="userSpaceOnUse" gradientTransform="translate(150.412 152.425) rotate(170.27) scale(105.917)">
<stop stop-color="#D8F7F9" stop-opacity="0"/>
<stop offset="0.453125" stop-color="#D8F7F9" stop-opacity="0.0885417"/>
<stop offset="1" stop-color="#D8F7F9"/>
</radialGradient>
<radialGradient id="paint13_radial_1_128" cx="0" cy="0" r="1" gradientUnits="userSpaceOnUse" gradientTransform="translate(130.47 150.784) rotate(44.284) scale(89.27 87.8749)">
<stop stop-color="#F3DAFA" stop-opacity="0"/>
<stop offset="0.307292" stop-color="#F3DAFA" stop-opacity="0.0885417"/>
<stop offset="0.848958" stop-color="#F3DAFA"/>
</radialGradient>
<radialGradient id="paint14_radial_1_128" cx="0" cy="0" r="1" gradientUnits="userSpaceOnUse" gradientTransform="translate(153.984 160.007) rotate(34.163) scale(100 98.3312)">
<stop stop-color="#F3F3FD" stop-opacity="0"/>
<stop offset="0.546875" stop-color="#F3F3FD" stop-opacity="0.0989583"/>
<stop offset="1" stop-color="#F3F3FD"/>
</radialGradient>
<radialGradient id="paint15_radial_1_128" cx="0" cy="0" r="1" gradientUnits="userSpaceOnUse" gradientTransform="translate(158.441 161.99) rotate(139.08) scale(100 99.9987)">
<stop stop-color="#D8F7F9" stop-opacity="0"/>
<stop offset="0.723958" stop-color="#D8F7F9" stop-opacity="0.0885417"/>
<stop offset="1" stop-color="#D8F7F9"/>
</radialGradient>
<radialGradient id="paint16_radial_1_128" cx="0" cy="0" r="1" gradientUnits="userSpaceOnUse" gradientTransform="translate(154.324 160.02) rotate(139.317) scale(100)">
<stop stop-color="#C2C5FD" stop-opacity="0"/>
<stop offset="0.510417" stop-color="#C5C8FD" stop-opacity="0.0989583"/>
<stop offset="1" stop-color="#E2E4FA"/>
</radialGradient>
<radialGradient id="paint17_radial_1_128" cx="0" cy="0" r="1" gradientUnits="userSpaceOnUse" gradientTransform="translate(162.577 147.607) rotate(-51.1483) scale(100)">
<stop stop-color="#F3F3FD" stop-opacity="0"/>
<stop offset="0.546875" stop-color="#F3F3FD" stop-opacity="0.0989583"/>
<stop offset="1" stop-color="#F3F3FD"/>
</radialGradient>
<radialGradient id="paint18_radial_1_128" cx="0" cy="0" r="1" gradientUnits="userSpaceOnUse" gradientTransform="translate(153.484 160.411) rotate(-44.3352) scale(100 98.2587)">
<stop stop-color="#C2C5FD" stop-opacity="0"/>
<stop offset="0.510417" stop-color="#C5C8FD" stop-opacity="0.0989583"/>
<stop offset="1" stop-color="#E2E4FA"/>
</radialGradient>
</defs>
</svg>
